<?xml version="1.0" standalone="no"?>
<!DOCTYPE svg PUBLIC "-//W3C//DTD SVG 20010904//EN"
 "http://www.w3.org/TR/2001/REC-SVG-20010904/DTD/svg10.dtd">
<svg version="1.0" xmlns="http://www.w3.org/2000/svg"
 width="1721.000000pt" height="1721.000000pt" viewBox="0 0 1721.000000 1721.000000"
 preserveAspectRatio="xMidYMid meet">
<metadata>
Created by potrace 1.14, written by Peter Selinger 2001-2017
</metadata>
<g transform="translate(0.000000,1721.000000) scale(0.100000,-0.100000)"
fill="#000000" stroke="none">
<path d="M11347 17173 c-32 -73 -59 -213 -79 -418 -2 -16 -9 33 -16 110 -22
240 -22 238 -46 229 -29 -10 -85 -10 -118 0 l-28 8 0 -58 c0 -33 7 -126 15
-209 19 -195 18 -207 -10 -106 -45 158 -86 269 -106 287 -52 47 -147 -2 -136
-70 3 -17 31 -130 61 -251 31 -121 55 -224 53 -229 -1 -4 -29 52 -62 125 -32
74 -62 138 -66 143 -4 4 -10 -30 -14 -77 l-7 -85 -49 72 c-54 82 -79 108 -79
84 0 -68 69 -353 111 -460 l18 -47 -57 -16 c-118 -35 -367 -139 -572 -240
-116 -58 -213 -105 -215 -105 -1 0 -2 10 -2 23 1 12 -38 85 -88 165 -175 279
-324 457 -455 541 -34 22 -110 59 -168 81 -59 23 -150 61 -202 85 -134 61
-231 89 -315 89 -164 1 -199 -38 -341 -373 -91 -214 -108 -368 -59 -554 100
-387 360 -714 747 -941 l88 -51 -68 -65 c-159 -154 -254 -320 -347 -605 -23
-71 -52 -146 -63 -165 -22 -38 -47 -141 -57 -235 -3 -33 -24 -148 -45 -255
-93 -464 -234 -1372 -277 -1785 -25 -245 -25 -749 1 -930 24 -171 77 -381 132
-524 68 -176 209 -435 323 -591 l33 -45 -34 -9 c-42 -12 -48 -21 -48 -71 0
-33 9 -50 48 -96 26 -31 67 -81 92 -110 l44 -54 -51 48 c-31 28 -62 47 -75 47
-61 0 -94 -65 -77 -153 5 -28 7 -52 5 -54 -2 -2 -50 48 -106 112 l-103 116
-37 -41 c-38 -41 -44 -44 -93 -40 -16 1 -37 -6 -47 -15 -12 -11 -26 -14 -40
-10 -48 15 -74 -47 -51 -120 6 -17 17 -52 25 -78 l16 -49 -35 31 c-39 34 -93
48 -124 32 -42 -23 -55 -68 -54 -184 1 -125 7 -127 -81 30 -84 150 -132 181
-193 129 -28 -24 -28 -25 -33 -170 -6 -161 -22 -212 -34 -104 -10 91 -26 135
-54 154 -54 35 -96 -24 -136 -195 l-22 -96 -24 70 c-52 158 -93 225 -136 225
-53 0 -69 -45 -61 -176 5 -92 5 -94 -18 -100 -13 -3 -31 -14 -40 -24 -16 -18
-19 -16 -73 56 -50 67 -59 74 -89 74 -50 0 -68 -47 -59 -157 3 -45 9 -89 13
-98 5 -16 8 -15 23 5 l16 22 17 -25 16 -24 -267 -6 c-460 -10 -835 -65 -1171
-172 -75 -24 -161 -46 -191 -50 -81 -11 -201 -58 -279 -109 -88 -59 -207 -184
-277 -292 -114 -174 -225 -443 -280 -676 -11 -48 -23 -78 -31 -78 -32 0 -197
82 -282 140 -114 78 -286 241 -339 320 -47 70 -96 200 -124 325 -34 154 -35
444 -4 833 14 177 26 342 26 365 0 39 6 48 64 109 119 121 162 243 153 428 -7
154 -30 230 -133 438 -107 216 -184 332 -294 442 -155 157 -308 242 -595 330
-93 29 -181 61 -194 71 -16 13 -39 19 -70 18 -25 -1 -70 4 -100 10 -50 10 -57
9 -97 -14 -102 -60 -108 -110 -35 -325 27 -80 81 -255 120 -390 109 -382 193
-616 290 -807 97 -195 239 -361 355 -418 l56 -27 0 -96 c0 -52 -14 -246 -31
-431 -53 -572 -30 -809 106 -1081 147 -293 429 -548 865 -780 85 -46 156 -84
157 -84 1 -1 -5 -51 -13 -111 -7 -61 -27 -249 -44 -420 -16 -170 -43 -440 -60
-600 -83 -808 -93 -1030 -94 -2030 -1 -875 5 -1019 55 -1405 11 -85 24 -186
29 -225 11 -93 80 -350 123 -461 155 -402 403 -659 744 -775 376 -127 852 -73
1298 147 194 95 334 218 351 308 l6 34 116 27 c236 55 394 118 467 186 111
102 138 307 68 502 -32 90 -63 152 -171 342 -186 326 -262 546 -440 1277 -32
131 -56 238 -53 238 3 0 31 -9 61 -21 64 -24 185 -49 239 -49 21 0 59 7 84 16
44 15 60 15 205 -1 209 -22 654 -31 852 -16 186 14 353 34 513 63 65 11 120
19 122 16 5 -4 -8 -296 -30 -693 -17 -314 -20 -759 -4 -942 42 -523 183 -897
428 -1142 321 -319 845 -445 1441 -345 434 73 698 237 704 439 0 27 -2 66 -7
86 l-7 36 122 6 c220 10 375 73 514 212 174 173 207 341 107 539 -14 27 -79
131 -146 230 -180 269 -263 444 -342 719 -97 338 -139 683 -181 1485 l-16 313
89 92 c407 427 610 1037 664 1995 16 290 7 933 -21 1517 -20 417 -24 473 -41
496 l-18 27 67 12 c37 7 80 19 96 26 17 8 48 17 70 20 147 22 524 132 718 210
296 119 527 272 754 502 356 360 532 770 574 1338 20 280 9 1242 -20 1794 -59
1095 -195 1764 -431 2111 -43 65 -157 186 -216 230 l-32 24 110 125 c415 467
579 756 579 1020 0 251 -163 580 -322 651 -44 19 -70 23 -153 23 -89 0 -112
-4 -215 -38 -198 -66 -392 -176 -600 -342 -115 -91 -353 -331 -424 -426 l-57
-76 -132 62 c-73 35 -170 78 -216 97 -46 19 -86 39 -88 45 -2 7 28 76 68 155
61 123 129 291 129 322 0 5 -16 -10 -35 -33 -19 -23 -35 -40 -35 -38 0 2 9 44
19 93 11 49 19 91 17 92 -2 2 -36 -55 -76 -127 -41 -71 -75 -128 -76 -127 -2
1 12 47 31 102 97 290 84 436 -38 427 -31 -2 -83 -48 -125 -112 -47 -70 -144
-259 -197 -383 -21 -48 -40 -86 -42 -84 -2 3 35 143 82 313 47 170 85 325 85
346 0 71 -32 105 -94 100 -52 -3 -162 -178 -232 -367 l-19 -50 -6 130 c-7 139
-17 215 -29 215 -10 0 -65 -141 -88 -226 l-19 -68 -6 149 c-3 83 -11 171 -17
198 l-12 47 -83 0 -82 0 -16 -37z m-2459 -548 c127 -52 466 -271 569 -368 145
-138 274 -334 333 -507 12 -36 29 -73 37 -82 24 -27 75 -33 113 -13 l33 17 -7
-24 c-4 -12 -9 -54 -13 -93 -10 -121 37 -253 128 -363 27 -31 65 -90 86 -130
44 -88 96 -150 140 -168 48 -20 60 -18 100 21 l36 35 -12 103 c-6 57 -27 162
-47 233 -44 162 -55 256 -43 354 14 110 38 233 47 242 8 8 195 88 198 85 1 -1
-9 -35 -22 -75 -47 -141 -42 -305 17 -487 51 -159 199 -386 349 -535 68 -68
97 -90 144 -107 33 -13 62 -20 64 -18 10 9 -38 167 -94 313 -78 203 -220 644
-234 726 -9 50 -9 78 -1 112 12 45 50 114 63 114 4 0 22 -28 39 -62 18 -35 55
-99 84 -143 29 -44 64 -102 79 -128 15 -26 46 -71 70 -100 23 -29 48 -66 55
-84 18 -45 43 -64 93 -70 24 -3 60 -14 80 -24 21 -11 68 -26 105 -35 176 -41
328 34 403 199 15 34 40 73 55 87 42 38 104 125 165 231 l56 96 68 -27 c79
-31 85 -37 134 -139 54 -112 57 -88 -85 -666 l-66 -270 18 -67 18 -67 26 20
c49 37 182 194 246 289 128 190 180 347 173 514 -3 56 -12 120 -20 144 -9 23
-14 42 -12 42 1 0 14 -4 28 -10 l26 -10 0 -156 c0 -119 4 -170 17 -210 15 -49
15 -60 0 -156 -26 -160 -37 -273 -28 -304 11 -43 33 -51 69 -26 17 12 37 19
45 16 26 -10 55 31 82 118 14 46 39 102 56 125 55 78 91 169 97 244 5 76 21
90 42 39 21 -51 103 -116 177 -141 84 -27 203 -23 256 10 83 51 201 202 291
371 115 220 163 432 118 534 -41 91 -146 109 -276 48 -165 -78 -458 -364 -608
-596 -36 -56 -38 -58 -47 -34 -15 39 -58 84 -109 114 -26 15 -49 28 -50 30 -2
1 16 20 40 41 23 21 169 164 323 319 154 154 314 306 356 337 158 116 280 172
398 183 l68 7 -4 -29 c-5 -37 35 -99 111 -173 48 -45 59 -64 77 -123 41 -133
14 -252 -94 -426 -30 -48 -107 -179 -172 -292 -152 -266 -214 -361 -287 -439
-61 -65 -67 -75 -88 -148 -19 -64 -8 -86 74 -148 78 -59 171 -153 212 -215
l25 -38 -26 -209 c-48 -378 -83 -494 -213 -698 -27 -43 -33 -64 -39 -133 -3
-45 -2 -82 2 -82 4 0 29 16 56 35 31 22 76 41 127 54 43 11 95 27 115 36 20 8
37 13 37 10 0 -3 -44 -65 -97 -138 -54 -73 -150 -209 -213 -302 -63 -93 -145
-201 -181 -240 -158 -167 -190 -203 -181 -209 5 -3 7 -17 4 -31 l-4 -25 115 0
c288 0 596 77 736 184 19 14 36 24 39 22 8 -9 -51 -206 -83 -273 -43 -93 -69
-130 -230 -338 -173 -222 -195 -258 -195 -312 0 -24 5 -43 11 -43 25 0 169 64
239 107 108 65 258 171 308 217 23 21 44 37 47 34 9 -9 -27 -185 -57 -276 -55
-166 -116 -249 -343 -470 -89 -86 -166 -166 -172 -176 -10 -19 -12 -19 -54 -3
-24 9 -57 27 -72 40 -30 23 -39 60 -68 256 -19 132 -40 172 -150 283 -53 54
-114 105 -133 113 -69 29 -145 16 -226 -38 -25 -17 -84 -57 -132 -89 -47 -31
-102 -71 -122 -88 -33 -30 -37 -31 -78 -19 -24 6 -55 17 -70 25 -80 42 -272
70 -560 84 -212 10 -371 20 -668 41 -165 12 -326 7 -585 -16 -88 -9 -212 -20
-275 -26 -63 -5 -170 -21 -237 -35 -67 -13 -144 -24 -170 -24 -57 0 -139 36
-238 104 -37 25 -90 53 -118 61 -112 33 -278 7 -390 -62 -44 -28 -140 -170
-168 -249 -20 -55 -49 -208 -49 -253 0 -23 -10 -32 -69 -64 l-68 -37 -25 38
c-14 20 -81 96 -150 168 -136 143 -205 232 -242 315 -33 74 -61 248 -52 322
l8 58 50 -73 c69 -100 230 -256 304 -295 32 -17 86 -38 120 -47 34 -9 78 -23
98 -31 l38 -16 -7 43 c-4 24 -19 68 -32 98 -50 111 -92 231 -137 386 -25 87
-57 193 -71 234 -26 74 -138 501 -133 506 2 1 28 -28 58 -64 119 -142 295
-242 505 -288 78 -17 298 -30 339 -20 34 8 33 31 -1 50 l-28 15 40 1 40 0 -45
40 c-25 22 -97 84 -160 138 -63 53 -131 113 -150 132 -131 130 -364 535 -406
704 l-7 30 29 -28 c53 -52 147 -106 219 -128 38 -11 92 -32 118 -45 54 -27
119 -32 142 -13 14 11 14 15 0 36 -9 13 -12 24 -8 24 4 0 -2 7 -14 15 -36 25
-114 136 -148 210 -34 74 -83 249 -110 398 -14 77 -15 110 -5 260 l12 172 31
33 c18 19 65 56 106 84 86 57 100 73 101 109 0 42 -33 74 -134 128 -60 32
-103 63 -118 83 -12 18 -59 74 -103 123 -44 50 -150 173 -235 275 -84 102
-179 214 -210 250 -101 117 -123 150 -136 208 -16 68 -17 150 -3 212 11 52
127 298 177 380 25 39 28 49 13 36 -23 -21 -25 -19 -12 18 17 44 99 37 239
-19z m5301 -797 c-27 -53 -99 -168 -105 -168 -6 0 10 31 68 128 53 88 72 109
37 40z m-3885 -125 c-4 -16 -10 -98 -14 -183 l-7 -155 -1 138 c-2 121 10 227
25 227 3 0 2 -12 -3 -27z m55 -656 c1 -10 -3 -15 -9 -12 -5 3 -10 21 -9 38 0
27 2 29 9 12 5 -11 9 -28 9 -38z m2408 -79 c-3 -8 -6 -5 -6 6 -1 11 2 17 5 13
3 -3 4 -12 1 -19z m-2982 -3180 c132 -75 172 -89 282 -95 51 -3 90 -9 88 -14
-3 -4 8 -1 24 7 39 20 115 31 251 39 63 3 192 15 285 27 356 45 1247 20 1498
-43 142 -36 269 -59 321 -59 28 0 83 -7 123 -15 48 -10 80 -12 96 -6 13 5 66
44 118 85 144 116 232 140 336 92 58 -27 98 -78 107 -136 3 -19 10 -88 16
-152 10 -132 25 -171 87 -229 81 -77 189 -122 403 -168 210 -46 232 -55 275
-107 30 -36 41 -43 60 -38 45 11 101 -105 112 -231 10 -128 -53 -417 -104
-472 -15 -17 -59 -88 -98 -158 -77 -139 -143 -223 -286 -360 -354 -340 -781
-570 -1325 -716 -203 -54 -611 -113 -961 -140 -202 -15 -595 -7 -733 15 -58 9
-154 29 -215 43 -60 14 -133 27 -161 28 -28 1 -60 7 -71 13 -11 6 -51 16 -89
23 -134 23 -467 139 -669 233 -224 105 -513 384 -718 692 -109 166 -229 401
-283 560 l-28 81 22 89 c33 133 89 240 161 306 65 61 118 85 304 143 179 56
285 136 322 244 9 25 20 107 25 183 10 153 25 198 83 242 53 40 105 56 177 53
59 -2 75 -8 165 -59z m4515 -499 l0 -180 -32 24 c-41 30 -139 80 -193 97 -61
19 -62 26 -11 57 112 66 169 107 199 144 18 21 33 39 35 39 1 0 2 -81 2 -181z
m-5694 5 c29 -14 85 -31 124 -38 l71 -12 -38 -23 c-21 -12 -77 -45 -124 -72
-47 -27 -106 -67 -131 -89 l-45 -39 -7 37 c-3 20 -6 112 -6 204 l0 167 51 -55
c29 -29 76 -66 105 -80z m-5185 -944 c84 -125 224 -401 262 -519 26 -79 48
-171 41 -171 -9 0 -121 149 -191 255 -169 254 -181 277 -204 382 -12 54 -34
134 -50 177 -16 44 -29 82 -29 85 2 16 109 -116 171 -209z m-546 -50 c18 -35
127 -411 121 -418 -5 -4 -146 422 -146 439 0 17 9 9 25 -21z m310 -180 c4 -28
-1 -22 -29 35 -43 87 -45 104 -6 45 16 -25 32 -61 35 -80z m387 -551 c29 -30
67 -65 83 -77 l30 -21 -35 -1 c-58 0 -110 20 -146 56 -19 19 -39 34 -44 34
-14 0 -48 103 -56 171 l-7 64 61 -85 c34 -47 85 -110 114 -141z m98 -476 c0
-26 -1 -26 -14 -8 -14 20 -12 35 5 35 5 0 9 -12 9 -27z m6125 -154 c72 -27 95
-39 82 -45 -11 -4 -32 1 -51 11 l-32 18 -50 -36 c-27 -19 -85 -54 -128 -77
-82 -43 -95 -42 -96 5 0 11 -14 49 -30 83 -17 35 -30 65 -30 67 0 2 19 -2 41
-10 60 -22 87 -19 117 13 23 23 31 26 52 18 14 -5 70 -26 125 -47z m2562 -15
c-3 -3 -12 -4 -19 -1 -8 3 -5 6 6 6 11 1 17 -2 13 -5z m-8804 -229 c6 -182 20
-283 58 -430 11 -44 29 -136 39 -205 33 -218 93 -382 195 -525 58 -82 194
-210 290 -274 141 -93 431 -221 501 -221 62 0 93 50 129 206 95 413 277 695
564 877 38 23 37 21 -12 -51 -70 -104 -168 -353 -218 -552 -21 -84 -24 -118
-24 -305 0 -224 8 -288 61 -464 34 -111 104 -274 156 -362 45 -74 136 -169
162 -169 22 0 20 22 -9 114 -47 146 -69 311 -69 521 0 169 2 204 26 316 49
228 117 402 213 548 27 41 100 135 162 210 141 169 194 265 201 363 2 37 5 68
6 68 0 0 37 6 81 14 44 8 138 17 209 22 l129 7 -63 -74 c-168 -195 -279 -442
-325 -724 -19 -117 -19 -319 0 -431 37 -210 144 -555 236 -757 28 -62 62 -140
74 -175 32 -85 50 -111 93 -129 20 -8 58 -33 83 -54 26 -22 49 -39 52 -39 3 0
9 21 12 48 3 26 16 76 27 113 20 63 20 69 5 205 -18 165 -11 252 52 719 43
317 62 391 153 606 27 64 79 168 115 230 36 63 87 152 114 199 49 86 79 177
79 237 l0 33 158 0 c88 0 200 -3 250 -6 l92 -7 -35 -38 c-108 -120 -165 -358
-151 -639 15 -339 116 -767 235 -999 125 -245 151 -293 188 -347 54 -78 104
-124 185 -168 l66 -37 7 75 c6 58 2 102 -14 188 -54 297 -66 434 -82 943 -16
532 -13 554 131 838 l78 152 88 6 c49 4 173 7 276 8 l187 1 -88 -87 c-187
-186 -274 -382 -273 -618 1 -278 115 -685 245 -875 44 -64 102 -120 124 -120
10 0 27 13 38 27 17 25 20 52 27 318 10 363 18 448 74 712 53 251 69 297 135
385 46 62 165 170 234 214 17 10 50 38 74 61 49 48 67 54 56 21 -56 -171 -68
-305 -40 -424 29 -125 164 -408 270 -569 45 -68 134 -155 158 -155 4 0 22 24
41 54 47 74 51 124 32 396 -9 124 -17 349 -18 500 l-3 275 33 120 c23 87 32
142 32 199 l0 79 33 -6 c17 -3 75 -13 127 -23 52 -9 131 -18 175 -19 50 -1 94
-8 118 -18 131 -60 525 -119 922 -138 218 -11 544 -3 710 17 l50 6 -2 -157 -2
-158 -68 -72 c-37 -39 -103 -111 -146 -159 -117 -129 -288 -253 -557 -403
-118 -67 -210 -133 -210 -154 0 -3 27 -12 60 -19 47 -10 79 -10 157 0 279 35
457 118 586 275 66 80 139 207 164 286 10 32 21 59 26 59 4 0 7 -36 7 -79 0
-71 -3 -85 -28 -123 -16 -24 -55 -108 -87 -188 -74 -187 -144 -336 -185 -395
-62 -90 -283 -316 -413 -423 -500 -409 -557 -466 -557 -558 l0 -44 41 0 c40 0
208 46 424 117 298 97 534 215 670 335 40 35 111 122 152 184 10 15 11 -18 6
-156 -5 -162 -7 -177 -28 -200 -12 -14 -50 -63 -85 -110 -91 -121 -231 -255
-334 -320 -49 -30 -121 -85 -162 -122 -40 -36 -151 -122 -245 -190 -274 -196
-369 -286 -369 -347 0 -44 16 -51 114 -51 236 1 559 73 766 172 65 31 102 58
162 117 43 42 78 74 78 70 0 -4 -15 -69 -34 -144 -36 -141 -47 -164 -151 -325
l-62 -96 -94 -47 c-52 -26 -152 -78 -224 -117 -126 -67 -424 -200 -542 -241
-32 -11 -140 -40 -240 -64 -100 -24 -198 -51 -219 -60 -20 -8 -64 -15 -98 -15
-38 -1 -73 -7 -94 -18 l-33 -18 148 -71 c245 -118 419 -160 628 -150 l110 6
-75 -36 c-133 -62 -396 -144 -631 -197 -43 -10 -119 -88 -126 -130 -4 -26 -15
-43 -37 -59 -17 -12 -78 -66 -135 -120 -57 -54 -112 -102 -122 -105 -26 -10
-179 -133 -189 -153 -6 -9 -69 -60 -142 -112 -134 -96 -214 -167 -188 -167 9
0 8 -4 -5 -14 -18 -13 -18 -14 1 -23 10 -6 50 -21 87 -33 58 -20 80 -22 150
-17 165 13 301 61 399 141 60 48 167 174 202 237 l24 41 6 -38 c3 -22 17 -138
31 -259 14 -121 35 -288 46 -371 19 -141 19 -155 5 -198 -9 -26 -16 -53 -16
-60 0 -7 -10 -21 -21 -32 -12 -10 -48 -58 -80 -106 -119 -176 -344 -424 -474
-523 -95 -72 -166 -145 -141 -145 18 0 18 -1 2 -19 -16 -18 -15 -19 51 -31 37
-7 83 -19 102 -26 67 -27 113 -20 374 58 133 40 225 120 292 253 l34 67 11
-43 c62 -240 106 -371 162 -483 16 -32 26 -62 21 -66 -16 -15 -179 -67 -268
-86 -138 -28 -446 -26 -620 5 -233 41 -424 104 -632 208 -89 45 -113 61 -118
82 -4 14 -9 190 -12 390 l-5 363 63 -48 c128 -98 266 -140 434 -131 120 7 196
26 290 72 85 42 197 139 176 154 -11 7 -8 12 13 26 14 10 26 21 26 25 0 14
-79 40 -203 66 -166 35 -219 54 -382 137 -182 94 -247 155 -324 305 l-52 103
7 117 c5 91 11 122 25 141 37 47 19 101 -47 142 -35 21 -41 22 -109 10 l-71
-12 -134 56 c-181 74 -260 123 -356 219 -86 87 -159 191 -244 351 -30 55 -82
146 -116 201 -126 204 -230 437 -339 756 -52 151 -132 318 -153 318 -15 -1
-92 -188 -102 -250 -38 -242 42 -753 165 -1066 57 -144 160 -290 291 -414 105
-101 163 -142 344 -248 8 -5 -56 -11 -162 -15 -189 -7 -508 5 -701 28 -109 13
-125 17 -192 56 -89 50 -148 98 -198 159 -21 25 -118 206 -220 410 -156 312
-191 389 -236 530 -46 142 -125 321 -141 319 -14 -1 -110 -141 -123 -180 -29
-86 -40 -205 -34 -383 9 -295 57 -494 155 -640 l48 -73 -125 42 c-69 23 -181
64 -248 90 -128 50 -156 52 -192 16 -13 -13 -20 -41 -25 -97 -4 -43 -13 -106
-22 -139 -8 -33 -17 -114 -21 -180 -6 -120 -6 -120 -60 -230 -102 -210 -192
-302 -410 -419 -160 -87 -206 -117 -265 -174 -32 -31 -44 -48 -36 -53 9 -6 9
-11 -1 -22 -28 -35 171 -77 364 -77 183 0 327 53 435 161 l57 57 22 -96 c13
-54 38 -146 56 -207 18 -60 35 -117 37 -126 1 -8 -33 -83 -77 -165 -112 -208
-198 -296 -428 -438 -42 -27 -98 -71 -123 -100 l-47 -51 39 -7 c62 -11 512 9
569 25 112 31 180 81 227 164 l24 42 31 -95 c17 -51 28 -96 25 -98 -4 -2 -70
-24 -148 -49 -576 -185 -1082 -177 -1475 24 l-97 50 -15 62 c-14 55 -38 207
-50 324 l-5 42 52 -29 c28 -16 78 -36 111 -45 180 -46 475 21 658 151 26 19
80 47 120 63 l72 29 -60 26 c-33 15 -111 38 -175 52 -162 34 -332 89 -422 136
-142 73 -257 200 -319 350 l-30 72 10 141 c6 77 13 224 17 327 l6 188 54 -49
c101 -92 238 -152 391 -171 48 -6 116 -15 149 -21 86 -13 140 -11 230 7 111
22 114 23 79 39 -16 7 -23 14 -14 14 9 1 23 9 33 19 15 18 15 20 -1 34 -10 9
-74 46 -143 83 -188 102 -227 130 -320 224 -136 139 -380 487 -416 593 -15 46
-15 110 2 216 l5 33 60 -55 c157 -146 385 -225 655 -229 101 -2 125 1 140 15
11 9 36 19 57 23 20 4 37 11 37 15 0 10 -36 35 -170 122 -124 80 -268 223
-350 348 -88 134 -230 426 -274 561 -54 170 -66 267 -54 467 5 92 8 253 5 357
-4 181 -3 191 16 213 13 14 21 36 21 59 0 51 -49 92 -226 185 -446 237 -676
423 -821 667 -149 249 -189 506 -152 951 8 96 20 241 27 322 7 82 15 142 19
135 3 -6 9 -93 12 -192z m5462 -6 c33 -25 73 -53 89 -61 l28 -15 -85 -26 c-70
-22 -104 -27 -196 -27 l-112 0 35 30 c48 42 60 86 53 188 l-6 84 67 -64 c37
-35 94 -84 127 -109z m-715 46 c35 -47 82 -99 104 -115 52 -39 103 -40 136 -5
23 25 24 25 44 6 12 -10 37 -28 56 -40 l35 -21 -140 0 c-77 0 -198 3 -268 7
-116 6 -126 7 -98 19 45 19 65 66 65 156 1 43 1 78 2 78 1 0 30 -38 64 -85z
m-372 27 c52 -79 103 -133 151 -164 42 -26 43 -28 16 -24 -17 3 -131 10 -255
17 -124 6 -226 12 -227 13 -1 1 4 24 12 51 8 26 15 60 15 74 1 25 1 25 15 7 8
-11 15 -28 15 -38 0 -31 45 -68 82 -68 51 0 72 22 104 105 16 41 31 75 34 75
3 0 20 -22 38 -48z m1405 -56 c16 -12 16 -14 1 -20 -26 -10 -34 -7 -34 14 0
23 8 25 33 6z m-2023 -62 c0 -8 4 -12 10 -9 5 3 18 1 27 -4 15 -8 11 -10 -19
-11 -31 0 -38 4 -38 20 0 11 5 20 10 20 6 0 10 -7 10 -16z m-500 -306 c-1 -49
-43 -159 -55 -146 -4 4 20 117 30 146 2 6 9 12 15 12 5 0 10 -6 10 -12z
m-1550 -52 c0 -2 -19 -15 -42 -29 -24 -14 -72 -49 -108 -78 -42 -33 -54 -40
-35 -20 17 18 63 55 103 82 72 48 82 53 82 45z m1344 -231 c-19 -55 -51 -149
-69 -210 -19 -60 -34 -101 -35 -89 -1 45 124 413 136 401 2 -2 -12 -48 -32
-102z m-1979 -1767 c-4 -79 -12 -147 -17 -153 -11 -10 -4 212 8 268 13 58 16
22 9 -115z m6720 -1864 c6 -39 3 -51 -24 -92 -44 -69 -68 -132 -87 -225 -18
-90 -36 -132 -97 -222 -62 -90 -120 -149 -248 -246 -63 -48 -135 -110 -160
-137 -46 -51 -113 -152 -105 -159 2 -3 44 -5 93 -5 69 0 119 8 228 35 221 56
323 96 408 161 l45 35 7 -93 c7 -92 7 -94 -39 -232 -95 -283 -246 -549 -376
-665 -110 -97 -140 -159 -77 -159 75 0 204 49 312 118 103 66 177 148 228 253
23 48 45 88 48 88 3 1 11 -25 18 -56 21 -96 98 -317 146 -420 25 -53 45 -97
45 -98 0 -2 -12 -6 -27 -10 -16 -3 -72 -31 -125 -62 -109 -61 -194 -94 -313
-118 -88 -18 -464 -40 -476 -28 -16 16 -81 263 -119 452 -49 245 -94 561 -156
1079 l-47 402 22 24 c31 33 106 67 286 131 268 96 405 163 520 254 28 22 53
40 56 40 4 1 10 -19 14 -45z m-889 -289 c-11 -8 -22 -12 -25 -9 -6 6 19 24 34
24 6 -1 1 -7 -9 -15z m-4096 -313 c96 -30 199 -62 229 -71 l54 -16 25 -97 24
-97 -21 -27 c-11 -15 -46 -78 -77 -142 -51 -107 -63 -122 -166 -226 -69 -69
-132 -145 -169 -201 -32 -49 -56 -91 -54 -93 6 -6 213 38 268 57 122 42 213
105 259 179 l22 35 17 -89 c36 -188 108 -435 168 -582 l29 -70 -94 -69 c-133
-96 -209 -141 -282 -163 -65 -20 -239 -47 -248 -38 -16 16 -151 543 -208 808
-76 356 -105 570 -113 822 l-6 198 84 -32 c46 -17 163 -56 259 -86z m779
-1692 c0 -13 -1 -13 -8 0 -5 8 -12 26 -15 40 l-7 25 15 -25 c9 -14 15 -32 15
-40z m4733 -95 c99 -146 94 -137 63 -125 -15 6 -55 10 -91 10 l-64 0 25 39
c57 85 35 160 -48 162 l-42 1 35 13 c19 7 38 13 41 12 4 -1 40 -51 81 -112z
m-4768 68 c-22 -16 -25 -13 -17 15 4 18 8 20 20 10 13 -10 13 -14 -3 -25z
m4226 -165 c-36 -16 -103 -39 -148 -51 -77 -19 -88 -20 -140 -6 -90 23 -76 35
50 42 62 4 151 15 198 26 114 25 115 24 40 -11z m-4048 -43 l34 -60 -77 -1
-77 -1 41 62 c23 35 43 63 44 62 1 -1 17 -29 35 -62z m-400 -118 c-38 -41
-128 -87 -193 -100 -59 -12 -65 -16 -82 -50 -16 -31 -17 -42 -7 -72 29 -88
110 -77 508 69 41 15 76 26 78 23 11 -11 -74 -101 -134 -141 -107 -71 -319
-149 -350 -130 -30 19 -151 186 -193 266 l-40 78 56 0 c66 0 226 31 305 59 72
26 78 25 52 -2z m5188 -88 c0 -12 -11 -18 -42 -21 -24 -3 -44 -4 -46 -2 -2 1
3 15 11 31 9 16 19 47 23 68 l7 40 24 -50 c12 -27 23 -57 23 -66z m-240 51 c0
-23 -93 -101 -160 -135 -98 -50 -173 -72 -321 -95 -69 -10 -138 -25 -153 -31
-24 -11 -29 -10 -56 16 -17 16 -30 31 -30 35 0 3 39 16 88 29 48 13 157 49
242 79 139 50 345 111 378 112 6 0 12 -5 12 -10z m-839 -33 c-8 -8 -16 -7 -27
5 -14 14 -14 15 11 10 19 -3 23 -8 16 -15z m-1481 -125 c121 -36 271 -67 383
-81 134 -16 99 -24 -83 -18 -195 6 -262 19 -376 71 -61 29 -194 112 -194 122
0 1 37 -13 83 -31 45 -18 129 -47 187 -63z m-3167 3 l25 -50 -57 3 c-34 2
-158 -14 -321 -42 -372 -63 -480 -76 -648 -76 -144 0 -275 15 -377 44 -67 19
-48 19 55 1 318 -58 758 -10 1170 128 69 23 126 42 126 42 1 0 13 -22 27 -50z
m1028 -39 c-17 -98 -35 -133 -81 -156 -46 -23 -196 -80 -212 -80 -6 0 23 22
63 48 96 63 187 166 220 249 17 43 22 11 10 -61z m3491 11 c25 -34 111 -132
190 -218 178 -195 186 -205 211 -252 47 -90 28 -166 -58 -224 -60 -42 -70 -42
-41 2 53 77 39 172 -28 200 -40 17 -93 19 -149 6 -38 -9 -38 -9 -23 12 9 12
24 33 33 46 9 13 19 49 21 82 4 57 3 60 -35 98 -45 46 -106 66 -174 58 l-47
-6 34 57 c43 71 46 126 8 171 -23 27 -24 31 -7 31 10 -1 38 -27 65 -63z
m-1675 -57 c18 -14 21 -20 10 -20 -9 0 -23 7 -31 16 -31 30 -16 33 21 4z
m1373 -75 c0 -2 -23 -17 -52 -31 -63 -32 -212 -64 -293 -63 l-60 1 105 23 c80
17 277 67 298 74 1 1 2 -1 2 -4z m-5839 -59 l74 -30 0 -85 c0 -108 23 -161
109 -246 95 -94 218 -144 396 -161 74 -7 75 -7 40 -19 -19 -6 -44 -26 -56 -43
l-21 -31 -77 34 c-237 103 -426 305 -540 578 -8 21 -12 37 -8 35 5 -2 42 -16
83 -32z m1840 -94 c46 -57 95 -120 108 -139 24 -34 25 -35 7 -68 -26 -48 -113
-108 -253 -176 -122 -59 -164 -75 -108 -40 59 36 187 166 211 213 16 31 24 64
24 97 0 42 -5 54 -30 79 -18 19 -49 34 -80 42 l-50 12 25 30 c14 16 28 41 31
55 8 29 -1 37 115 -105z m-405 63 c-30 -23 -171 -75 -273 -101 -221 -56 -449
-69 -586 -34 -150 38 -144 45 41 46 178 1 286 13 602 68 107 19 204 34 215 35
20 0 20 0 1 -14z m3366 -116 c81 -16 199 -36 261 -43 100 -12 105 -14 49 -15
-146 -2 -364 35 -454 79 -24 11 -34 18 -24 15 11 -3 86 -19 168 -36z m1302
-40 c-94 -106 -463 -195 -912 -221 l-202 -12 -28 -43 c-15 -24 -31 -43 -36
-43 -13 0 -137 94 -175 134 -19 20 -33 36 -30 36 2 0 29 -7 59 -15 30 -8 111
-20 180 -26 264 -24 625 34 992 161 164 57 180 60 152 29z m-4494 -101 c-87
-73 -296 -149 -538 -193 -188 -35 -220 -30 -67 10 141 36 198 57 386 136 125
53 240 91 249 82 3 -3 -11 -18 -30 -35z m-1190 -13 c14 -8 21 -14 15 -14 -5 0
-21 6 -35 14 -14 8 -20 14 -15 14 6 0 21 -6 35 -14z m5750 -205 c-8 -5 -19
-10 -25 -10 -5 0 -3 5 5 10 8 5 20 10 25 10 6 0 3 -5 -5 -10z m-5303 -6 c-3
-3 -12 -4 -19 -1 -8 3 -5 6 6 6 11 1 17 -2 13 -5z m4473 -141 c13 -14 11 -15
-21 -9 -19 3 -55 13 -80 20 l-44 14 65 -5 c38 -3 71 -12 80 -20z"/>
<path d="M8791 16244 c-46 -59 -9 -214 100 -423 157 -300 276 -434 471 -532
106 -53 155 -52 184 3 17 33 11 79 -11 98 -12 10 -10 16 17 34 17 11 45 48 62
80 81 156 7 325 -218 500 -189 147 -428 266 -537 266 -39 0 -51 -4 -68 -26z
m477 -380 c-4 -3 -12 5 -18 18 -12 22 -12 22 6 6 10 -10 15 -20 12 -24z"/>
<path d="M12581 14245 c-35 -8 -74 -21 -88 -30 -22 -15 -53 -69 -53 -93 0 -5
26 -17 58 -27 31 -10 113 -43 182 -75 171 -78 315 -131 364 -133 36 -2 41 1
44 22 6 41 -20 111 -63 170 -98 134 -281 202 -444 166z"/>
<path d="M10138 14111 c-166 -53 -288 -197 -288 -340 0 -35 5 -53 20 -66 19
-17 22 -16 97 32 43 28 106 65 141 82 66 33 328 206 338 223 7 11 -17 34 -71
69 -40 25 -157 25 -237 0z"/>
<path d="M10179 13150 c-20 -10 -51 -36 -69 -56 -141 -161 -129 -549 21 -677
114 -98 279 -63 350 75 45 88 64 296 38 420 -25 114 -86 204 -164 239 -52 24
-130 23 -176 -1z m200 -196 c14 -18 21 -41 21 -73 0 -59 -21 -91 -60 -91 -39
0 -60 32 -60 91 0 52 29 99 60 99 10 0 28 -12 39 -26z"/>
<path d="M12605 13154 c-75 -39 -125 -113 -155 -229 -35 -138 -21 -314 33
-422 106 -209 360 -184 438 43 21 60 24 87 24 214 0 117 -4 156 -19 200 -48
137 -132 210 -243 210 -26 0 -61 -7 -78 -16z m44 -193 c48 -48 32 -163 -23
-169 -55 -7 -86 54 -66 129 16 57 54 75 89 40z"/>
<path d="M9602 11679 c-104 -53 -156 -224 -104 -342 56 -126 171 -186 289
-152 99 29 134 102 76 160 -29 28 -50 29 -133 10 -40 -10 -71 21 -77 76 -6 53
9 89 37 89 10 0 47 -24 81 -52 88 -76 101 -82 143 -64 39 16 56 42 56 83 0 60
-184 196 -282 209 -32 4 -53 0 -86 -17z"/>
<path d="M12872 11639 c-60 -11 -100 -44 -128 -103 -47 -101 -19 -186 61 -186
42 0 85 36 85 72 0 35 15 51 46 51 56 0 80 -66 50 -138 -17 -39 -28 -42 -79
-20 -48 20 -90 5 -111 -39 -13 -27 -14 -40 -5 -66 24 -66 180 -104 265 -64 62
30 124 156 124 254 0 147 -155 267 -308 239z"/>
<path d="M10288 10664 c-3 -5 -18 -47 -33 -94 -50 -153 -72 -180 -226 -274
l-64 -39 45 -20 c58 -25 143 -25 201 0 l44 19 54 -80 c118 -178 207 -255 411
-360 257 -131 491 -181 835 -179 279 1 497 45 690 137 178 85 293 187 370 328
l41 73 79 6 c44 3 93 12 109 21 l29 15 -57 34 c-92 55 -198 132 -218 159 -12
17 -21 52 -26 103 l-7 77 -36 -24 c-53 -36 -83 -104 -76 -168 4 -27 17 -69 30
-93 l25 -43 -39 -69 c-105 -191 -346 -323 -676 -369 -159 -22 -483 -14 -624
15 -310 63 -544 197 -687 393 -97 132 -103 138 -119 138 -10 0 -13 6 -8 18 12
30 18 109 11 144 -7 39 -71 145 -78 132z"/>
</g>
</svg>
